<svg width="321" height="155" viewBox="0 0 321 155" fill="none" xmlns="http://www.w3.org/2000/svg">
<g filter="url(#filter0_d_27_9)">
<path d="M38.2219 52.675L76.5002 140.875L68.1216 144.55L29.3627 57.4954L38.2219 52.675Z" fill="#8D8D8D"/>
<path d="M38.2219 52.675L76.5002 140.875L68.1216 144.55L29.3627 57.4954L38.2219 52.675Z" fill="url(#paint0_linear_27_9)"/>
<path d="M49.8391 134.877L42.6515 138.505L18.2888 81.6773L26.0405 78.05L38.2219 105.859L49.8391 134.877Z" fill="#8D8D8D"/>
<path d="M49.8391 134.877L42.6515 138.505L18.2888 81.6773L26.0405 78.05L38.2219 105.859L49.8391 134.877Z" fill="url(#paint1_linear_27_9)"/>
<path d="M11.6444 97.3954L28.2553 134.877L21.611 138.505L5 101.023L11.6444 97.3954Z" fill="#8D8D8D"/>
<path d="M11.6444 97.3954L28.2553 134.877L21.611 138.505L5 101.023L11.6444 97.3954Z" fill="url(#paint2_linear_27_9)"/>
<path d="M261.916 86.975C183.207 54.2396 140.667 57.7898 61.9578 90.65L64.7994 97.3954C140.068 62.8304 180.912 61.964 259.492 94.325L261.916 86.975Z" fill="#8D8D8D"/>
<path d="M261.916 86.975C183.207 54.2396 140.667 57.7898 61.9578 90.65L64.7994 97.3954C140.068 62.8304 180.912 61.964 259.492 94.325L261.916 86.975Z" fill="url(#paint3_linear_27_9)"/>
<path d="M38.2219 52.675L76.5002 140.875L68.1216 144.55L29.3627 57.4954L38.2219 52.675Z" stroke="white"/>
<path d="M49.8391 134.877L42.6515 138.505L18.2888 81.6773L26.0405 78.05L38.2219 105.859L49.8391 134.877Z" stroke="white"/>
<path d="M11.6444 97.3954L28.2553 134.877L21.611 138.505L5 101.023L11.6444 97.3954Z" stroke="white"/>
<path d="M261.916 86.975C183.207 54.2396 140.667 57.7898 61.9578 90.65L64.7994 97.3954C140.068 62.8304 180.912 61.964 259.492 94.325L261.916 86.975Z" stroke="white"/>
</g>
<g filter="url(#filter1_d_27_9)">
<ellipse cx="163.755" cy="73.5" rx="76.3477" ry="73.5" fill="#979797"/>
<ellipse cx="163.755" cy="73.5" rx="76.3477" ry="73.5" fill="url(#paint4_linear_27_9)"/>
</g>
<g filter="url(#filter2_d_27_9)">
<g filter="url(#filter3_dd_27_9)">
<ellipse cx="187.992" cy="28.175" rx="3.6356" ry="3.675" fill="#C92AF1"/>
<path d="M187.992 32.35C190.281 32.35 192.128 30.4757 192.128 28.175C192.128 25.8743 190.281 24 187.992 24C185.703 24 183.856 25.8743 183.856 28.175C183.856 30.4757 185.703 32.35 187.992 32.35Z" stroke="black"/>
</g>
</g>
<g filter="url(#filter4_d_27_9)">
<path d="M308.729 85.75L302.669 106.575L295.398 128.625L302.669 131.075L316 88.2L308.729 85.75Z" fill="#737373"/>
<path d="M308.729 85.75L302.669 106.575L295.398 128.625L302.669 131.075L316 88.2L308.729 85.75Z" fill="url(#paint5_linear_27_9)"/>
<path d="M295.416 66.15L273.602 134.75L282.085 137.2L303.899 68.6L295.416 66.15Z" fill="#737373"/>
<path d="M295.416 66.15L273.602 134.75L282.085 137.2L303.899 68.6L295.416 66.15Z" fill="url(#paint6_linear_27_9)"/>
<path d="M281.274 45.325L250.978 139.65L259.461 143.325L289.758 47.775L281.274 45.325Z" fill="#737373"/>
<path d="M281.274 45.325L250.978 139.65L259.461 143.325L289.758 47.775L281.274 45.325Z" fill="url(#paint7_linear_27_9)"/>
<path d="M308.729 85.75L302.669 106.575L295.398 128.625L302.669 131.075L316 88.2L308.729 85.75Z" stroke="white"/>
<path d="M295.416 66.15L273.602 134.75L282.085 137.2L303.899 68.6L295.416 66.15Z" stroke="white"/>
<path d="M281.274 45.325L250.978 139.65L259.461 143.325L289.758 47.775L281.274 45.325Z" stroke="white"/>
</g>
<g filter="url(#filter5_d_27_9)">
<g filter="url(#filter6_dd_27_9)">
<ellipse cx="161.331" cy="18.375" rx="3.6356" ry="3.675" fill="#C92AF1"/>
<path d="M161.331 22.55C163.62 22.55 165.467 20.6757 165.467 18.375C165.467 16.0743 163.62 14.2 161.331 14.2C159.042 14.2 157.195 16.0743 157.195 18.375C157.195 20.6757 159.042 22.55 161.331 22.55Z" stroke="black"/>
</g>
</g>
<g filter="url(#filter7_d_27_9)">
<g filter="url(#filter8_dd_27_9)">
<ellipse cx="134.67" cy="40.425" rx="3.6356" ry="3.675" fill="#C92AF1"/>
<path d="M134.67 44.6C136.959 44.6 138.805 42.7257 138.805 40.425C138.805 38.1243 136.959 36.25 134.67 36.25C132.381 36.25 130.534 38.1243 130.534 40.425C130.534 42.7257 132.381 44.6 134.67 44.6Z" stroke="black"/>
</g>
</g>
<g filter="url(#filter9_d_27_9)">
<g filter="url(#filter10_dd_27_9)">
<ellipse cx="122.551" cy="74.725" rx="3.6356" ry="3.675" fill="#C92AF1"/>
<path d="M122.551 78.9C124.84 78.9 126.687 77.0257 126.687 74.725C126.687 72.4243 124.84 70.55 122.551 70.55C120.262 70.55 118.416 72.4243 118.416 74.725C118.416 77.0257 120.262 78.9 122.551 78.9Z" stroke="black"/>
</g>
</g>
<g filter="url(#filter11_d_27_9)">
<path d="M161.331 24.5V126.175L169.814 137.2" stroke="black"/>
</g>
<g filter="url(#filter12_d_27_9)">
<path d="M187.992 33.075V58.8L161.331 80.85" stroke="black"/>
</g>
<g filter="url(#filter13_d_27_9)">
<path d="M134.67 45.325V55.125L160.119 69.825" stroke="black"/>
</g>
<g filter="url(#filter14_d_27_9)">
<path d="M122.551 79.625V89.425L161.331 109.025" stroke="black"/>
</g>
<g filter="url(#filter15_dd_27_9)">
<ellipse cx="207.382" cy="60.025" rx="3.6356" ry="3.675" fill="#C92AF1"/>
<path d="M207.382 64.2C209.671 64.2 211.518 62.3257 211.518 60.025C211.518 57.7243 209.671 55.85 207.382 55.85C205.093 55.85 203.246 57.7243 203.246 60.025C203.246 62.3257 205.093 64.2 207.382 64.2Z" stroke="black"/>
</g>
<g filter="url(#filter16_d_27_9)">
<path d="M207.382 64.9249V79.6249L161.331 100.45" stroke="black"/>
</g>
<defs>
<filter id="filter0_d_27_9" x="0.356369" y="51.9746" width="266.18" height="101.233" filterUnits="userSpaceOnUse" color-interpolation-filters="sRGB">
<feFlood flood-opacity="0" result="BackgroundImageFix"/>
<feColorMatrix in="SourceAlpha" type="matrix" values="0 0 0 0 0 0 0 0 0 0 0 0 0 0 0 0 0 0 127 0" result="hardAlpha"/>
<feOffset dy="4"/>
<feGaussianBlur stdDeviation="2"/>
<feColorMatrix type="matrix" values="0 0 0 0 0 0 0 0 0 0 0 0 0 0 0 0 0 0 0.4 0"/>
<feBlend mode="normal" in2="BackgroundImageFix" result="effect1_dropShadow_27_9"/>
<feBlend mode="normal" in="SourceGraphic" in2="effect1_dropShadow_27_9" result="shape"/>
</filter>
<filter id="filter1_d_27_9" x="83.407" y="0" width="160.695" height="155" filterUnits="userSpaceOnUse" color-interpolation-filters="sRGB">
<feFlood flood-opacity="0" result="BackgroundImageFix"/>
<feColorMatrix in="SourceAlpha" type="matrix" values="0 0 0 0 0 0 0 0 0 0 0 0 0 0 0 0 0 0 127 0" result="hardAlpha"/>
<feOffset dy="4"/>
<feGaussianBlur stdDeviation="2"/>
<feColorMatrix type="matrix" values="0 0 0 0 0 0 0 0 0 0 0 0 0 0 0 0 0 0 0.6 0"/>
<feBlend mode="normal" in2="BackgroundImageFix" result="effect1_dropShadow_27_9"/>
<feBlend mode="normal" in="SourceGraphic" in2="effect1_dropShadow_27_9" result="shape"/>
</filter>
<filter id="filter2_d_27_9" x="179.356" y="23.5" width="17.2712" height="17.35" filterUnits="userSpaceOnUse" color-interpolation-filters="sRGB">
<feFlood flood-opacity="0" result="BackgroundImageFix"/>
<feColorMatrix in="SourceAlpha" type="matrix" values="0 0 0 0 0 0 0 0 0 0 0 0 0 0 0 0 0 0 127 0" result="hardAlpha"/>
<feOffset dy="4"/>
<feGaussianBlur stdDeviation="2"/>
<feColorMatrix type="matrix" values="0 0 0 0 0 0 0 0 0 0 0 0 0 0 0 0 0 0 0.25 0"/>
<feBlend mode="normal" in2="BackgroundImageFix" result="effect1_dropShadow_27_9"/>
<feBlend mode="normal" in="SourceGraphic" in2="effect1_dropShadow_27_9" result="shape"/>
</filter>
<filter id="filter3_dd_27_9" x="179.356" y="23.5" width="17.2712" height="17.35" filterUnits="userSpaceOnUse" color-interpolation-filters="sRGB">
<feFlood flood-opacity="0" result="BackgroundImageFix"/>
<feColorMatrix in="SourceAlpha" type="matrix" values="0 0 0 0 0 0 0 0 0 0 0 0 0 0 0 0 0 0 127 0" result="hardAlpha"/>
<feOffset dy="4"/>
<feGaussianBlur stdDeviation="2"/>
<feColorMatrix type="matrix" values="0 0 0 0 0 0 0 0 0 0 0 0 0 0 0 0 0 0 0.25 0"/>
<feBlend mode="normal" in2="BackgroundImageFix" result="effect1_dropShadow_27_9"/>
<feColorMatrix in="SourceAlpha" type="matrix" values="0 0 0 0 0 0 0 0 0 0 0 0 0 0 0 0 0 0 127 0" result="hardAlpha"/>
<feOffset dy="4"/>
<feGaussianBlur stdDeviation="2"/>
<feColorMatrix type="matrix" values="0 0 0 0 0 0 0 0 0 0 0 0 0 0 0 0 0 0 0.25 0"/>
<feBlend mode="normal" in2="effect1_dropShadow_27_9" result="effect2_dropShadow_27_9"/>
<feBlend mode="normal" in="SourceGraphic" in2="effect2_dropShadow_27_9" result="shape"/>
</filter>
<filter id="filter4_d_27_9" x="246.363" y="44.7099" width="74.2593" height="107.294" filterUnits="userSpaceOnUse" color-interpolation-filters="sRGB">
<feFlood flood-opacity="0" result="BackgroundImageFix"/>
<feColorMatrix in="SourceAlpha" type="matrix" values="0 0 0 0 0 0 0 0 0 0 0 0 0 0 0 0 0 0 127 0" result="hardAlpha"/>
<feOffset dy="4"/>
<feGaussianBlur stdDeviation="2"/>
<feColorMatrix type="matrix" values="0 0 0 0 0 0 0 0 0 0 0 0 0 0 0 0 0 0 0.4 0"/>
<feBlend mode="normal" in2="BackgroundImageFix" result="effect1_dropShadow_27_9"/>
<feBlend mode="normal" in="SourceGraphic" in2="effect1_dropShadow_27_9" result="shape"/>
</filter>
<filter id="filter5_d_27_9" x="152.695" y="13.7" width="17.2712" height="17.35" filterUnits="userSpaceOnUse" color-interpolation-filters="sRGB">
<feFlood flood-opacity="0" result="BackgroundImageFix"/>
<feColorMatrix in="SourceAlpha" type="matrix" values="0 0 0 0 0 0 0 0 0 0 0 0 0 0 0 0 0 0 127 0" result="hardAlpha"/>
<feOffset dy="4"/>
<feGaussianBlur stdDeviation="2"/>
<feColorMatrix type="matrix" values="0 0 0 0 0 0 0 0 0 0 0 0 0 0 0 0 0 0 0.25 0"/>
<feBlend mode="normal" in2="BackgroundImageFix" result="effect1_dropShadow_27_9"/>
<feBlend mode="normal" in="SourceGraphic" in2="effect1_dropShadow_27_9" result="shape"/>
</filter>
<filter id="filter6_dd_27_9" x="152.695" y="13.7" width="17.2712" height="17.35" filterUnits="userSpaceOnUse" color-interpolation-filters="sRGB">
<feFlood flood-opacity="0" result="BackgroundImageFix"/>
<feColorMatrix in="SourceAlpha" type="matrix" values="0 0 0 0 0 0 0 0 0 0 0 0 0 0 0 0 0 0 127 0" result="hardAlpha"/>
<feOffset dy="4"/>
<feGaussianBlur stdDeviation="2"/>
<feColorMatrix type="matrix" values="0 0 0 0 0 0 0 0 0 0 0 0 0 0 0 0 0 0 0.25 0"/>
<feBlend mode="normal" in2="BackgroundImageFix" result="effect1_dropShadow_27_9"/>
<feColorMatrix in="SourceAlpha" type="matrix" values="0 0 0 0 0 0 0 0 0 0 0 0 0 0 0 0 0 0 127 0" result="hardAlpha"/>
<feOffset dy="4"/>
<feGaussianBlur stdDeviation="2"/>
<feColorMatrix type="matrix" values="0 0 0 0 0 0 0 0 0 0 0 0 0 0 0 0 0 0 0.25 0"/>
<feBlend mode="normal" in2="effect1_dropShadow_27_9" result="effect2_dropShadow_27_9"/>
<feBlend mode="normal" in="SourceGraphic" in2="effect2_dropShadow_27_9" result="shape"/>
</filter>
<filter id="filter7_d_27_9" x="126.034" y="35.75" width="17.2712" height="17.35" filterUnits="userSpaceOnUse" color-interpolation-filters="sRGB">
<feFlood flood-opacity="0" result="BackgroundImageFix"/>
<feColorMatrix in="SourceAlpha" type="matrix" values="0 0 0 0 0 0 0 0 0 0 0 0 0 0 0 0 0 0 127 0" result="hardAlpha"/>
<feOffset dy="4"/>
<feGaussianBlur stdDeviation="2"/>
<feColorMatrix type="matrix" values="0 0 0 0 0 0 0 0 0 0 0 0 0 0 0 0 0 0 0.25 0"/>
<feBlend mode="normal" in2="BackgroundImageFix" result="effect1_dropShadow_27_9"/>
<feBlend mode="normal" in="SourceGraphic" in2="effect1_dropShadow_27_9" result="shape"/>
</filter>
<filter id="filter8_dd_27_9" x="126.034" y="35.75" width="17.2712" height="17.35" filterUnits="userSpaceOnUse" color-interpolation-filters="sRGB">
<feFlood flood-opacity="0" result="BackgroundImageFix"/>
<feColorMatrix in="SourceAlpha" type="matrix" values="0 0 0 0 0 0 0 0 0 0 0 0 0 0 0 0 0 0 127 0" result="hardAlpha"/>
<feOffset dy="4"/>
<feGaussianBlur stdDeviation="2"/>
<feColorMatrix type="matrix" values="0 0 0 0 0 0 0 0 0 0 0 0 0 0 0 0 0 0 0.25 0"/>
<feBlend mode="normal" in2="BackgroundImageFix" result="effect1_dropShadow_27_9"/>
<feColorMatrix in="SourceAlpha" type="matrix" values="0 0 0 0 0 0 0 0 0 0 0 0 0 0 0 0 0 0 127 0" result="hardAlpha"/>
<feOffset dy="4"/>
<feGaussianBlur stdDeviation="2"/>
<feColorMatrix type="matrix" values="0 0 0 0 0 0 0 0 0 0 0 0 0 0 0 0 0 0 0.25 0"/>
<feBlend mode="normal" in2="effect1_dropShadow_27_9" result="effect2_dropShadow_27_9"/>
<feBlend mode="normal" in="SourceGraphic" in2="effect2_dropShadow_27_9" result="shape"/>
</filter>
<filter id="filter9_d_27_9" x="113.916" y="70.05" width="17.2712" height="17.35" filterUnits="userSpaceOnUse" color-interpolation-filters="sRGB">
<feFlood flood-opacity="0" result="BackgroundImageFix"/>
<feColorMatrix in="SourceAlpha" type="matrix" values="0 0 0 0 0 0 0 0 0 0 0 0 0 0 0 0 0 0 127 0" result="hardAlpha"/>
<feOffset dy="4"/>
<feGaussianBlur stdDeviation="2"/>
<feColorMatrix type="matrix" values="0 0 0 0 0 0 0 0 0 0 0 0 0 0 0 0 0 0 0.25 0"/>
<feBlend mode="normal" in2="BackgroundImageFix" result="effect1_dropShadow_27_9"/>
<feBlend mode="normal" in="SourceGraphic" in2="effect1_dropShadow_27_9" result="shape"/>
</filter>
<filter id="filter10_dd_27_9" x="113.916" y="70.05" width="17.2712" height="17.35" filterUnits="userSpaceOnUse" color-interpolation-filters="sRGB">
<feFlood flood-opacity="0" result="BackgroundImageFix"/>
<feColorMatrix in="SourceAlpha" type="matrix" values="0 0 0 0 0 0 0 0 0 0 0 0 0 0 0 0 0 0 127 0" result="hardAlpha"/>
<feOffset dy="4"/>
<feGaussianBlur stdDeviation="2"/>
<feColorMatrix type="matrix" values="0 0 0 0 0 0 0 0 0 0 0 0 0 0 0 0 0 0 0.25 0"/>
<feBlend mode="normal" in2="BackgroundImageFix" result="effect1_dropShadow_27_9"/>
<feColorMatrix in="SourceAlpha" type="matrix" values="0 0 0 0 0 0 0 0 0 0 0 0 0 0 0 0 0 0 127 0" result="hardAlpha"/>
<feOffset dy="4"/>
<feGaussianBlur stdDeviation="2"/>
<feColorMatrix type="matrix" values="0 0 0 0 0 0 0 0 0 0 0 0 0 0 0 0 0 0 0.25 0"/>
<feBlend mode="normal" in2="effect1_dropShadow_27_9" result="effect2_dropShadow_27_9"/>
<feBlend mode="normal" in="SourceGraphic" in2="effect2_dropShadow_27_9" result="shape"/>
</filter>
<filter id="filter11_d_27_9" x="159.831" y="24.5" width="13.3793" height="118.005" filterUnits="userSpaceOnUse" color-interpolation-filters="sRGB">
<feFlood flood-opacity="0" result="BackgroundImageFix"/>
<feColorMatrix in="SourceAlpha" type="matrix" values="0 0 0 0 0 0 0 0 0 0 0 0 0 0 0 0 0 0 127 0" result="hardAlpha"/>
<feOffset dx="1" dy="3"/>
<feGaussianBlur stdDeviation="1"/>
<feColorMatrix type="matrix" values="0 0 0 0 0 0 0 0 0 0 0 0 0 0 0 0 0 0 0.6 0"/>
<feBlend mode="normal" in2="BackgroundImageFix" result="effect1_dropShadow_27_9"/>
<feBlend mode="normal" in="SourceGraphic" in2="effect1_dropShadow_27_9" result="shape"/>
</filter>
<filter id="filter12_d_27_9" x="159.012" y="33.075" width="31.4798" height="54.1603" filterUnits="userSpaceOnUse" color-interpolation-filters="sRGB">
<feFlood flood-opacity="0" result="BackgroundImageFix"/>
<feColorMatrix in="SourceAlpha" type="matrix" values="0 0 0 0 0 0 0 0 0 0 0 0 0 0 0 0 0 0 127 0" result="hardAlpha"/>
<feOffset dy="4"/>
<feGaussianBlur stdDeviation="1"/>
<feColorMatrix type="matrix" values="0 0 0 0 0 0 0 0 0 0 0 0 0 0 0 0 0 0 0.6 0"/>
<feBlend mode="normal" in2="BackgroundImageFix" result="effect1_dropShadow_27_9"/>
<feBlend mode="normal" in="SourceGraphic" in2="effect1_dropShadow_27_9" result="shape"/>
</filter>
<filter id="filter13_d_27_9" x="132.17" y="45.325" width="30.1993" height="30.933" filterUnits="userSpaceOnUse" color-interpolation-filters="sRGB">
<feFlood flood-opacity="0" result="BackgroundImageFix"/>
<feColorMatrix in="SourceAlpha" type="matrix" values="0 0 0 0 0 0 0 0 0 0 0 0 0 0 0 0 0 0 127 0" result="hardAlpha"/>
<feOffset dy="4"/>
<feGaussianBlur stdDeviation="1"/>
<feColorMatrix type="matrix" values="0 0 0 0 0 0 0 0 0 0 0 0 0 0 0 0 0 0 0.6 0"/>
<feBlend mode="normal" in2="BackgroundImageFix" result="effect1_dropShadow_27_9"/>
<feBlend mode="normal" in="SourceGraphic" in2="effect1_dropShadow_27_9" result="shape"/>
</filter>
<filter id="filter14_d_27_9" x="120.051" y="79.625" width="43.5053" height="35.8463" filterUnits="userSpaceOnUse" color-interpolation-filters="sRGB">
<feFlood flood-opacity="0" result="BackgroundImageFix"/>
<feColorMatrix in="SourceAlpha" type="matrix" values="0 0 0 0 0 0 0 0 0 0 0 0 0 0 0 0 0 0 127 0" result="hardAlpha"/>
<feOffset dy="4"/>
<feGaussianBlur stdDeviation="1"/>
<feColorMatrix type="matrix" values="0 0 0 0 0 0 0 0 0 0 0 0 0 0 0 0 0 0 0.6 0"/>
<feBlend mode="normal" in2="BackgroundImageFix" result="effect1_dropShadow_27_9"/>
<feBlend mode="normal" in="SourceGraphic" in2="effect1_dropShadow_27_9" result="shape"/>
</filter>
<filter id="filter15_dd_27_9" x="198.746" y="55.35" width="17.2712" height="17.35" filterUnits="userSpaceOnUse" color-interpolation-filters="sRGB">
<feFlood flood-opacity="0" result="BackgroundImageFix"/>
<feColorMatrix in="SourceAlpha" type="matrix" values="0 0 0 0 0 0 0 0 0 0 0 0 0 0 0 0 0 0 127 0" result="hardAlpha"/>
<feOffset dy="4"/>
<feGaussianBlur stdDeviation="2"/>
<feColorMatrix type="matrix" values="0 0 0 0 0 0 0 0 0 0 0 0 0 0 0 0 0 0 0.25 0"/>
<feBlend mode="normal" in2="BackgroundImageFix" result="effect1_dropShadow_27_9"/>
<feColorMatrix in="SourceAlpha" type="matrix" values="0 0 0 0 0 0 0 0 0 0 0 0 0 0 0 0 0 0 127 0" result="hardAlpha"/>
<feOffset dy="4"/>
<feGaussianBlur stdDeviation="2"/>
<feColorMatrix type="matrix" values="0 0 0 0 0 0 0 0 0 0 0 0 0 0 0 0 0 0 0.25 0"/>
<feBlend mode="normal" in2="effect1_dropShadow_27_9" result="effect2_dropShadow_27_9"/>
<feBlend mode="normal" in="SourceGraphic" in2="effect2_dropShadow_27_9" result="shape"/>
</filter>
<filter id="filter16_d_27_9" x="159.125" y="64.9249" width="50.757" height="41.9806" filterUnits="userSpaceOnUse" color-interpolation-filters="sRGB">
<feFlood flood-opacity="0" result="BackgroundImageFix"/>
<feColorMatrix in="SourceAlpha" type="matrix" values="0 0 0 0 0 0 0 0 0 0 0 0 0 0 0 0 0 0 127 0" result="hardAlpha"/>
<feOffset dy="4"/>
<feGaussianBlur stdDeviation="1"/>
<feColorMatrix type="matrix" values="0 0 0 0 0 0 0 0 0 0 0 0 0 0 0 0 0 0 0.6 0"/>
<feBlend mode="normal" in2="BackgroundImageFix" result="effect1_dropShadow_27_9"/>
<feBlend mode="normal" in="SourceGraphic" in2="effect1_dropShadow_27_9" result="shape"/>
</filter>
<linearGradient id="paint0_linear_27_9" x1="133.458" y1="52.675" x2="133.458" y2="144.55" gradientUnits="userSpaceOnUse">
<stop stop-color="white"/>
<stop offset="1" stop-color="white" stop-opacity="0"/>
</linearGradient>
<linearGradient id="paint1_linear_27_9" x1="133.458" y1="52.675" x2="133.458" y2="144.55" gradientUnits="userSpaceOnUse">
<stop stop-color="white"/>
<stop offset="1" stop-color="white" stop-opacity="0"/>
</linearGradient>
<linearGradient id="paint2_linear_27_9" x1="133.458" y1="52.675" x2="133.458" y2="144.55" gradientUnits="userSpaceOnUse">
<stop stop-color="white"/>
<stop offset="1" stop-color="white" stop-opacity="0"/>
</linearGradient>
<linearGradient id="paint3_linear_27_9" x1="133.458" y1="52.675" x2="133.458" y2="144.55" gradientUnits="userSpaceOnUse">
<stop stop-color="white"/>
<stop offset="1" stop-color="white" stop-opacity="0"/>
</linearGradient>
<linearGradient id="paint4_linear_27_9" x1="163.755" y1="0" x2="163.755" y2="147" gradientUnits="userSpaceOnUse">
<stop stop-color="white"/>
<stop offset="1" stop-color="white" stop-opacity="0"/>
</linearGradient>
<linearGradient id="paint5_linear_27_9" x1="283.489" y1="45.325" x2="283.489" y2="143.325" gradientUnits="userSpaceOnUse">
<stop stop-color="white"/>
<stop offset="1" stop-color="white" stop-opacity="0"/>
</linearGradient>
<linearGradient id="paint6_linear_27_9" x1="283.489" y1="45.325" x2="283.489" y2="143.325" gradientUnits="userSpaceOnUse">
<stop stop-color="white"/>
<stop offset="1" stop-color="white" stop-opacity="0"/>
</linearGradient>
<linearGradient id="paint7_linear_27_9" x1="283.489" y1="45.325" x2="283.489" y2="143.325" gradientUnits="userSpaceOnUse">
<stop stop-color="white"/>
<stop offset="1" stop-color="white" stop-opacity="0"/>
</linearGradient>
</defs>
</svg>
